<?xml version="1.0" encoding="utf-8"?>
<!-- Generator: Adobe Illustrator 23.1.0, SVG Export Plug-In . SVG Version: 6.00 Build 0)  -->
<svg version="1.1" id="Capa_1" xmlns="http://www.w3.org/2000/svg" xmlns:xlink="http://www.w3.org/1999/xlink" x="0px" y="0px"
	 viewBox="0 0 512 512" style="enable-background:new 0 0 512 512;" xml:space="preserve">
<style type="text/css">
	.st0{fill:#F3D373;}
	.st1{fill:#674230;}
	.st2{fill:#7A5436;}
	.st3{fill:#AD712C;}
</style>
<circle class="st0" cx="256" cy="256" r="256"/>
<path class="st0" d="M415.2,55.6c34.8,43.7,55.6,99,55.6,159.2c0,141.4-114.6,256-256,256c-60.2,0-115.5-20.8-159.2-55.6
	c46.9,59,119.3,96.8,200.4,96.8c141.4,0,256-114.6,256-256C512,174.8,474.2,102.5,415.2,55.6z"/>
<path class="st0" d="M139.6,145.3c-5.3,0-10.5-2-14.6-6c-22.1-22.1-22.1-58,0-80.1c10.7-10.7,24.9-16.6,40.1-16.6
	c15.1,0,29.4,5.9,40.1,16.6c8,8,8,21.1,0,29.1c-8,8-21.1,8-29.1,0c-2.9-2.9-6.8-4.5-10.9-4.5s-8,1.6-10.9,4.5c-6,6-6,15.8,0,21.9
	c8,8,8,21.1,0,29.1C150.1,143.3,144.8,145.3,139.6,145.3z"/>
<circle class="st1" cx="165" cy="99.2" r="36.1"/>
<path class="st2" d="M129.2,95.7c0,0.1,0,0.3,0,0.4c-1,11.9,8.8,22,20.8,21.6c0.8,0,1.6-0.1,2.4-0.2c17-1.7,30.6-15.4,32.2-32.4
	c0-0.1,0-0.3,0-0.4c1-11.9-8.8-22-20.8-21.6c-0.8,0-1.6,0.1-2.4,0.2C144.4,65,130.7,78.7,129.2,95.7z"/>
<path class="st0" d="M57.1,310.1c-5.3,0-10.5-2-14.6-6c-22.1-22.1-22.1-58,0-80.1c10.7-10.7,24.9-16.6,40.1-16.6s29.4,5.9,40.1,16.6
	c8,8,8,21.1,0,29.1c-8,8-21.1,8-29.1,0c-2.9-2.9-6.8-4.5-10.9-4.5s-8,1.6-10.9,4.5c-6,6-6,15.8,0,21.9c8,8,8,21.1,0,29.1
	C67.7,308.1,62.4,310.1,57.1,310.1z"/>
<circle class="st1" cx="82.6" cy="264" r="36.1"/>
<path class="st2" d="M46.7,260.6c0,0.1,0,0.3,0,0.4c-1,11.9,8.8,22,20.8,21.6c0.8,0,1.6-0.1,2.4-0.2c17-1.7,30.6-15.4,32.2-32.4
	c0-0.1,0-0.3,0-0.4c1-11.9-8.8-22-20.8-21.6c-0.8,0-1.6,0.1-2.4,0.2C61.9,229.9,48.3,243.6,46.7,260.6z"/>
<path class="st0" d="M129.3,413.1c-5.3,0-10.5-2-14.6-6c-22.1-22.1-22.1-58,0-80.1c10.7-10.7,24.9-16.6,40.1-16.6
	s29.4,5.9,40.1,16.6c8,8,8,21.1,0,29.1c-8,8-21.1,8-29.1,0c-2.9-2.9-6.8-4.5-10.9-4.5s-8,1.6-10.9,4.5c-6,6-6,15.8,0,21.9
	c8,8,8,21.1,0,29.1C139.8,411.1,134.5,413.1,129.3,413.1z"/>
<circle class="st1" cx="154.7" cy="367" r="36.1"/>
<path class="st2" d="M118.9,363.6c0,0.1,0,0.3,0,0.4c-1,11.9,8.8,22,20.8,21.6c0.8,0,1.6-0.1,2.4-0.2c17-1.7,30.6-15.4,32.2-32.4
	c0-0.1,0-0.3,0-0.4c1-11.9-8.8-22-20.8-21.6c-0.8,0-1.6,0.1-2.4,0.2C134.1,332.9,120.4,346.6,118.9,363.6z"/>
<path class="st0" d="M242.6,485.2c-5.3,0-10.5-2-14.6-6c-22.1-22.1-22.1-58,0-80.1c10.7-10.7,24.9-16.6,40.1-16.6
	c15.1,0,29.4,5.9,40.1,16.6c8,8,8,21.1,0,29.1c-8,8-21.1,8-29.1,0c-2.9-2.9-6.8-4.5-10.9-4.5c-4.1,0-8,1.6-10.9,4.5
	c-6,6-6,15.8,0,21.9c8,8,8,21.1,0,29.1C253.1,483.2,247.8,485.2,242.6,485.2z"/>
<circle class="st1" cx="268.1" cy="439.1" r="36.1"/>
<path class="st2" d="M232.2,435.7c0,0.1,0,0.3,0,0.4c-1,11.9,8.8,22,20.8,21.6c0.8,0,1.6-0.1,2.4-0.2c17-1.7,30.6-15.4,32.2-32.4
	c0-0.1,0-0.3,0-0.4c1-11.9-8.8-22-20.8-21.6c-0.8,0-1.6,0.1-2.4,0.2C247.4,405,233.8,418.7,232.2,435.7z"/>
<path class="st0" d="M263.2,196.9c-5.3,0-10.5-2-14.6-6c-22.1-22.1-22.1-58,0-80.1c10.7-10.7,24.9-16.6,40.1-16.6
	s29.4,5.9,40.1,16.6c8,8,8,21.1,0,29.1c-8,8-21.1,8-29.1,0c-2.9-2.9-6.8-4.5-10.9-4.5s-8,1.6-10.9,4.5c-6,6-6,15.8,0,21.9
	c8,8,8,21.1,0,29.1C273.7,194.9,268.4,196.9,263.2,196.9z"/>
<circle class="st1" cx="288.7" cy="150.8" r="36.1"/>
<path class="st2" d="M252.8,147.4c0,0.1,0,0.3,0,0.4c-1,11.9,8.8,22,20.8,21.6c0.8,0,1.6-0.1,2.4-0.2c17-1.7,30.6-15.4,32.2-32.4
	c0-0.1,0-0.3,0-0.4c1-11.9-8.8-22-20.8-21.6c-0.8,0-1.6,0.1-2.4,0.2C268,116.7,254.4,130.4,252.8,147.4z"/>
<path class="st0" d="M386.8,382.2c-5.3,0-10.5-2-14.6-6c-22.1-22.1-22.1-58,0-80.1c10.7-10.7,24.9-16.6,40.1-16.6
	s29.4,5.9,40.1,16.6c8,8,8,21.1,0,29.1c-8,8-21.1,8-29.1,0c-2.9-2.9-6.8-4.5-10.9-4.5c-4.1,0-8,1.6-10.9,4.5c-6,6-6,15.8,0,21.9
	c8,8,8,21.1,0,29.1C397.3,380.2,392.1,382.2,386.8,382.2z"/>
<circle class="st1" cx="412.3" cy="336.1" r="36.1"/>
<path class="st2" d="M376.4,332.7c0,0.1,0,0.3,0,0.4c-1,11.9,8.8,22,20.8,21.6c0.8,0,1.6-0.1,2.4-0.2c17-1.7,30.6-15.4,32.2-32.4
	c0-0.1,0-0.3,0-0.4c1-11.9-8.8-22-20.8-21.6c-0.8,0-1.6,0.1-2.4,0.2C391.6,302,378,315.7,376.4,332.7z"/>
<path class="st0" d="M376.5,186.5c-5.3,0-10.5-2-14.6-6c-22.1-22.1-22.1-58,0-80.1c10.7-10.7,24.9-16.6,40.1-16.6
	s29.4,5.9,40.1,16.6c8,8,8,21.1,0,29.1c-8,8-21.1,8-29.1,0c-2.9-2.9-6.8-4.5-10.9-4.5s-8,1.6-10.9,4.5c-6,6-6,15.8,0,21.9
	c8,8,8,21.1,0,29.1C387,184.5,381.8,186.5,376.5,186.5z"/>
<circle class="st1" cx="402" cy="140.4" r="36.1"/>
<path class="st2" d="M366.1,136.9c0,0.1,0,0.3,0,0.4c-1,11.9,8.8,22,20.8,21.6c0.8,0,1.6-0.1,2.4-0.2c17-1.7,30.6-15.4,32.2-32.4
	c0-0.1,0-0.3,0-0.4c1-11.9-8.8-22-20.8-21.6c-0.8,0-1.6,0.1-2.4,0.2C381.3,106.2,367.7,120,366.1,136.9z"/>
<path class="st0" d="M222,310.1c-5.3,0-10.5-2-14.6-6c-22.1-22.1-22.1-58,0-80.1c10.7-10.7,24.9-16.6,40.1-16.6s29.4,5.9,40.1,16.6
	c8,8,8,21.1,0,29.1c-8,8-21.1,8-29.1,0c-2.9-2.9-6.8-4.5-10.9-4.5s-8,1.6-10.9,4.5c-6,6-6,15.8,0,21.9c8,8,8,21.1,0,29.1
	C232.5,308.1,227.2,310.1,222,310.1z"/>
<ellipse transform="matrix(0.1602 -0.9871 0.9871 0.1602 -52.7846 465.9892)" class="st1" cx="247.5" cy="264" rx="36.1" ry="36.1"/>
<path class="st2" d="M211.6,260.6c0,0.1,0,0.3,0,0.4c-1,11.9,8.8,22,20.8,21.6c0.8,0,1.6-0.1,2.4-0.2c17-1.7,30.6-15.4,32.2-32.4
	c0-0.1,0-0.3,0-0.4c1-11.9-8.8-22-20.8-21.6c-0.8,0-1.6,0.1-2.4,0.2C226.8,229.9,213.2,243.6,211.6,260.6z"/>
<g>
	<circle class="st3" cx="129.8" cy="294.6" r="7.7"/>
	<circle class="st3" cx="181.3" cy="294.6" r="7.7"/>
	<circle class="st3" cx="155.6" cy="248.3" r="7.7"/>
	<circle class="st3" cx="62.8" cy="341" r="7.7"/>
	<circle class="st3" cx="165.9" cy="454.3" r="7.7"/>
	<circle class="st3" cx="196.8" cy="413.1" r="7.7"/>
	<circle class="st3" cx="248.3" cy="351.3" r="7.7"/>
	<circle class="st3" cx="330.7" cy="320.4" r="7.7"/>
	<circle class="st3" cx="310.1" cy="341" r="7.7"/>
	<circle class="st3" cx="341" cy="371.9" r="7.7"/>
	<circle class="st3" cx="341" cy="433.7" r="7.7"/>
	<circle class="st3" cx="454.3" cy="217.4" r="7.7"/>
	<circle class="st3" cx="423.4" cy="423.4" r="7.7"/>
	<circle class="st3" cx="268.9" cy="31.9" r="7.7"/>
	<circle class="st3" cx="83.4" cy="124.7" r="7.7"/>
	<circle class="st3" cx="42.2" cy="186.5" r="7.7"/>
	<circle class="st3" cx="160.7" cy="201.9" r="7.7"/>
	<circle class="st3" cx="191.6" cy="186.5" r="7.7"/>
	<circle class="st3" cx="160.7" cy="171" r="7.7"/>
	<circle class="st3" cx="304.9" cy="248.3" r="7.7"/>
	<circle class="st3" cx="238" cy="93.7" r="7.7"/>
	<circle class="st3" cx="335.8" cy="186.5" r="7.7"/>
	<circle class="st3" cx="351.3" cy="232.8" r="7.7"/>
	<circle class="st3" cx="382.2" cy="232.8" r="7.7"/>
	<circle class="st3" cx="382.2" cy="263.7" r="7.7"/>
	<circle class="st3" cx="325.5" cy="78.3" r="7.7"/>
	<circle class="st3" cx="356.4" cy="62.8" r="7.7"/>
</g>
</svg>
